<?xml version="1.0" encoding="UTF-8"?>
<svg version="1.1" xmlns="http://www.w3.org/2000/svg" width="1718" height="1649">
<path d="M0 0 C2.12674663 -0.00208841 4.25349255 -0.0050525 6.38023689 -0.00880873 C12.22475003 -0.01659175 18.06919703 -0.01193953 23.91370908 -0.00525283 C30.27207586 -0.00017876 36.6304325 -0.00669954 42.98879784 -0.01173949 C54.13291812 -0.01896503 65.27701861 -0.01880996 76.42113972 -0.01364517 C88.37603384 -0.00813841 100.33091661 -0.0069854 112.28581142 -0.01111984 C113.04151332 -0.01137819 113.79721521 -0.01163653 114.57581716 -0.01190271 C117.65379032 -0.01296928 120.73176347 -0.0140667 123.80973661 -0.01520326 C152.46566027 -0.02577718 181.12157633 -0.02650139 209.77750111 -0.02090836 C211.05072059 -0.02065997 211.05072059 -0.02065997 212.34966168 -0.02040657 C213.62492354 -0.02015778 213.62492354 -0.02015778 214.92594827 -0.01990396 C240.82802396 -0.01485743 266.73009651 -0.01355489 292.63217258 -0.01594925 C294.36675919 -0.01610421 296.1013458 -0.01625852 297.83593241 -0.01641219 C304.80656709 -0.01703313 311.77720177 -0.01767046 318.74783644 -0.01833172 C338.23388564 -0.02016574 357.71993484 -0.02130694 377.20598412 -0.02190399 C378.0933401 -0.02193128 378.98069608 -0.02195857 379.89494164 -0.02198669 C408.17047824 -0.02280526 436.44601374 -0.02055143 464.72154999 -0.01620483 C465.63864993 -0.01606434 466.55574987 -0.01592384 467.50064071 -0.01577908 C482.3936719 -0.0134892 497.28670306 -0.01105026 512.17973422 -0.00859874 C571.23935653 0.00111266 630.29896977 0.00066425 689.35859203 -0.00905991 C704.24054399 -0.01150231 719.12249595 -0.01392442 734.00444794 -0.01620483 C734.92079816 -0.01634573 735.83714839 -0.01648663 736.7812668 -0.01663179 C765.02466637 -0.02094469 793.26806518 -0.02277261 821.51146507 -0.02190399 C822.39820962 -0.02187682 823.28495417 -0.02184965 824.19856977 -0.02182166 C843.66482568 -0.02119668 863.13108152 -0.01992936 882.59733735 -0.01808299 C889.56268125 -0.01742471 896.52802514 -0.01679855 903.49336904 -0.01618156 C905.22615231 -0.01602679 906.95893559 -0.01586933 908.69171886 -0.01570917 C934.58449179 -0.0133226 960.47726117 -0.01535371 986.37003365 -0.02040657 C987.64288055 -0.02065495 987.64288055 -0.02065495 988.94144154 -0.02090836 C989.78843951 -0.02107372 990.63543749 -0.02123909 991.50810207 -0.02140946 C1020.08482977 -0.02692765 1048.66154834 -0.02489318 1077.23827473 -0.01434687 C1080.30812114 -0.01324218 1083.37796756 -0.01216877 1086.44781399 -0.01111984 C1087.5778925 -0.01072922 1087.5778925 -0.01072922 1088.73080088 -0.01033071 C1100.65128918 -0.00638875 1112.57176613 -0.00912941 1124.4922534 -0.01465785 C1136.21880442 -0.0199536 1147.94533244 -0.01791367 1159.67188151 -0.00862968 C1165.94249238 -0.00386751 1172.21306026 -0.00225511 1178.4836698 -0.00944164 C1184.19208117 -0.01591717 1189.90041154 -0.01313582 1195.60881704 -0.00308032 C1197.65726071 -0.00107176 1199.70571114 -0.00238298 1201.75414943 -0.0074922 C1212.22307152 -0.03174369 1222.38507914 0.27270602 1232.75169743 1.80319406 C1236.66113328 2.33254827 1240.48775091 2.44390154 1244.42646313 2.47629166 C1292.1959258 2.93616615 1343.3091344 29.81654579 1378.48993969 60.86642838 C1379.63148355 61.87110029 1380.78004966 62.86781128 1381.93281078 63.85959244 C1393.29638594 73.67013182 1403.91650135 84.33756599 1413.0639143 96.25168228 C1414.25694164 97.75408463 1414.25694164 97.75408463 1415.47407055 99.28683853 C1440.52084886 130.98712364 1472.43300692 182.19166346 1468.6264143 224.06418228 C1468.47366039 225.80635025 1468.47366039 225.80635025 1468.31782055 227.58371353 C1468.19213696 228.90435806 1468.19213696 228.90435806 1468.0639143 230.25168228 C1469.0539143 230.25168228 1470.0439143 230.25168228 1471.0639143 230.25168228 C1472.85959884 235.7509662 1473.87820557 240.6728733 1472.55967029 246.467834 C1471.9229186 250.04342389 1471.92969266 253.55005676 1471.94431847 257.16825485 C1471.94353731 257.96477302 1471.94275615 258.76129118 1471.94195131 259.58194626 C1471.94055049 262.26684395 1471.94633153 264.95167867 1471.95203972 267.63656998 C1471.95251353 269.58292552 1471.95254568 271.52928121 1471.95217469 273.47563678 C1471.95243039 278.85666321 1471.95896587 284.23766697 1471.96645355 289.61868753 C1471.97347197 295.46092082 1471.9746558 301.30315562 1471.97653943 307.14539242 C1471.98063548 317.39610428 1471.98837922 327.64680871 1471.99854183 337.89751625 C1472.00941987 348.89953091 1472.01807399 359.90154405 1472.02398014 370.90356255 C1472.02435337 371.59795445 1472.0247266 372.29234636 1472.02511114 373.00778045 C1472.02699977 376.54845574 1472.02884372 380.08913106 1472.03066512 383.62980639 C1472.03440949 390.89008303 1472.03843342 398.15035951 1472.04254305 405.41063595 C1472.04295633 406.14193362 1472.04336961 406.87323128 1472.04379541 407.62668948 C1472.05027671 419.01283859 1472.05799119 430.39898651 1472.06644952 441.78513432 C1472.06702075 442.55465323 1472.06759199 443.32417215 1472.06818053 444.11700982 C1472.07050373 447.24236471 1472.07283352 450.36771959 1472.07516795 453.49307447 C1472.10370214 491.70299758 1472.12258385 529.91291961 1472.1371365 568.12285042 C1472.14054343 577.06497672 1472.14406975 586.00710298 1472.14760178 594.94922924 C1472.14824829 596.58730131 1472.14889478 598.22537338 1472.14954124 599.86344546 C1472.15083841 603.1497714 1472.15213681 606.43609735 1472.15343577 609.72242329 C1472.15473914 613.02100846 1472.15603838 616.31959363 1472.1573342 619.61817881 C1472.17229141 657.6781945 1472.18887985 695.73820935 1472.20697562 733.79822368 C1472.20820172 736.37880296 1472.2094229 738.95938225 1472.2106436 741.53996153 C1472.22946751 781.26013554 1472.25129253 820.9803058 1472.28028393 860.70047379 C1472.28121763 861.98079231 1472.28121763 861.98079231 1472.28217019 863.28697586 C1472.29221517 877.04822389 1472.30241838 890.80947182 1472.31265562 904.57071972 C1472.3421594 944.23181786 1472.36921671 983.89291271 1472.38282013 1023.55401993 C1472.38310139 1024.37044398 1472.38338265 1025.18686803 1472.38367243 1026.0280322 C1472.38953928 1043.14967803 1472.39455848 1060.27132398 1472.39848225 1077.39297036 C1472.40032257 1085.41228063 1472.40235046 1093.43159084 1472.40448475 1101.45090103 C1472.4046915 1102.24042178 1472.40489825 1103.02994252 1472.40511126 1103.84338814 C1472.41185382 1129.23480711 1472.4317514 1154.62619483 1472.45877947 1180.0175997 C1472.48598316 1205.61461528 1472.50083316 1231.21160537 1472.49859147 1256.80863627 C1472.49828534 1260.35448302 1472.49812428 1263.90032976 1472.49805164 1267.44617653 C1472.49802285 1268.48870308 1472.49802285 1268.48870308 1472.49799347 1269.55229077 C1472.49805814 1279.8421904 1472.50928193 1290.13203604 1472.52727795 1300.42191887 C1472.54727576 1311.89228135 1472.55397268 1323.36255015 1472.54291739 1334.83292664 C1472.53777386 1340.60005686 1472.53874923 1346.36699354 1472.55776825 1352.13409901 C1472.82253728 1437.23420634 1446.07670511 1510.05558571 1386.0639143 1571.25168228 C1376.70516908 1580.63563285 1366.72076886 1588.94902965 1356.04389477 1596.78927994 C1354.2639929 1598.10390536 1352.50722915 1599.44311751 1350.75532055 1600.79465103 C1311.70276135 1630.09602042 1254.52978307 1652.2885479 1205.0639143 1649.25168228 C1204.0739143 1648.92168228 1203.0839143 1648.59168228 1202.0639143 1648.25168228 C1199.42000898 1648.15617661 1196.80275448 1648.11809121 1194.15882707 1648.12633312 C1193.33921589 1648.1249308 1192.51960472 1648.12352848 1191.67515684 1648.12208367 C1188.89951816 1648.11857459 1186.12393412 1648.12225542 1183.34829617 1648.12584114 C1181.34133447 1648.124799 1179.33437297 1648.12331849 1177.32741189 1648.12143677 C1171.76894133 1648.11751575 1166.21048796 1648.11988674 1160.65201766 1648.12321473 C1154.62122745 1648.12573756 1148.59044 1648.12249705 1142.55965018 1648.11997139 C1131.97543853 1648.11634817 1121.39123261 1648.11644269 1110.80702114 1648.11901855 C1099.44619562 1648.12176661 1088.08537309 1648.12235273 1076.72454739 1648.12028122 C1076.00787424 1648.12015205 1075.2912011 1648.12002287 1074.55281059 1648.11988979 C1071.63406486 1648.11935654 1068.71531913 1648.11880783 1065.7965734 1648.11823951 C1038.58780693 1648.11294531 1011.37904245 1648.11259364 984.17027569 1648.11538696 C983.36341339 1648.11546976 982.55655108 1648.11555255 981.72523841 1648.11563786 C980.51301681 1648.11576225 980.51301681 1648.11576225 979.27630589 1648.11588916 C954.67947441 1648.11840992 930.08264376 1648.11906487 905.48581219 1648.11786652 C903.84023469 1648.11778904 902.1946572 1648.11771188 900.5490797 1648.11763505 C893.93654228 1648.11732459 887.32400487 1648.11700593 880.71146745 1648.11667528 C862.22501069 1648.11575815 843.73855392 1648.11518764 825.25209713 1648.11488914 C823.98921374 1648.11486868 823.98921374 1648.11486868 822.70081755 1648.11484779 C795.86258683 1648.11443835 769.02435639 1648.11556624 742.18612576 1648.11773872 C741.31531467 1648.11780897 740.44450358 1648.11787922 739.54730428 1648.1179516 C725.40494566 1648.11909662 711.26258704 1648.12031605 697.12022843 1648.12154177 C641.03635209 1648.12639742 584.95247813 1648.12617369 528.8686018 1648.12131119 C514.73822689 1648.12009004 500.60785199 1648.118879 486.47747707 1648.11773872 C485.6074642 1648.11766828 484.73745132 1648.11759783 483.84107442 1648.11752524 C457.03501758 1648.11536951 430.22896094 1648.1144547 403.42290401 1648.11488914 C402.58154214 1648.11490273 401.74018027 1648.11491631 400.87332259 1648.11493031 C382.40511928 1648.11524277 363.936916 1648.11587637 345.46871271 1648.11679965 C338.86074182 1648.1171288 332.25277093 1648.11744188 325.64480005 1648.11775036 C324.00084337 1648.11782775 322.3568867 1648.11790648 320.71293003 1648.11798656 C296.12420896 1648.11918096 271.53548883 1648.11816211 246.94676788 1648.11563786 C246.14023676 1648.11555506 245.33370564 1648.11547227 244.50273418 1648.11538696 C243.29516014 1648.11526294 243.29516014 1648.11526294 242.06319065 1648.11513641 C214.93019614 1648.11238021 187.79720404 1648.11338866 160.66420987 1648.11866771 C157.75243507 1648.11922008 154.84066027 1648.11975678 151.92888546 1648.12028122 C151.21426889 1648.12041143 150.49965231 1648.12054163 149.76338069 1648.12067579 C138.43323008 1648.12265066 127.10308245 1648.1212723 115.7729321 1648.11851221 C104.64061072 1648.11587138 93.50829436 1648.11687196 82.37597321 1648.1215263 C76.4172897 1648.1239157 70.45861752 1648.12469649 64.49993435 1648.12112032 C59.08498324 1648.11790347 53.67005359 1648.11924291 48.25510406 1648.12430098 C46.30276791 1648.12531266 44.35042999 1648.12463027 42.39809522 1648.12209504 C39.7555033 1648.11890552 37.1129866 1648.1218425 34.47039819 1648.12633312 C33.71303288 1648.12394238 32.95566756 1648.12155163 32.17535179 1648.11908844 C27.71574023 1648.13456689 23.46619952 1648.56435039 19.0639143 1649.25168228 C17.22027516 1649.24734279 15.37563179 1649.18237841 13.53657055 1649.05246353 C12.50983227 1648.98003433 11.48309399 1648.90760513 10.42524242 1648.83298111 C8.7923225 1648.69992569 8.7923225 1648.69992569 7.1264143 1648.56418228 C5.97979321 1648.47096695 4.83317211 1648.37775162 3.65180492 1648.28171158 C-69.60950422 1641.86278846 -137.99658089 1605.4138713 -185.4360857 1549.21652603 C-188.05830978 1545.97851025 -190.50858625 1542.63783829 -192.9360857 1539.25168228 C-193.78627608 1538.10613141 -194.63787071 1536.96162157 -195.4907732 1535.81808853 C-201.54185185 1527.6251365 -206.93358013 1519.12003911 -211.9360857 1510.25168228 C-212.36002613 1509.50628189 -212.78396656 1508.7608815 -213.22075367 1507.99289322 C-225.8978398 1485.47334891 -234.89788977 1461.35388498 -240.9360857 1436.25168228 C-241.0980477 1435.60338488 -241.2600097 1434.95508747 -241.42687963 1434.28714469 C-244.54195173 1421.66868495 -245.50684871 1409.80089732 -245.43107033 1396.83673 C-245.43434068 1394.8405223 -245.43936564 1392.84431686 -245.44596419 1390.84811738 C-245.45896969 1385.39396063 -245.44728309 1379.94010188 -245.43135183 1374.4859634 C-245.41844275 1368.54043326 -245.42890033 1362.59493516 -245.43632764 1356.64940196 C-245.44613776 1346.23947923 -245.44128403 1335.82962845 -245.42636585 1325.41971588 C-245.41044503 1314.25748907 -245.40332474 1303.09530742 -245.40680981 1291.93306923 C-245.40702506 1291.22639943 -245.40724031 1290.51972963 -245.40746208 1289.79164559 C-245.40859894 1286.18789006 -245.40987569 1282.58413459 -245.41120013 1278.98037911 C-245.42047222 1252.93472258 -245.41029828 1226.88910277 -245.38957119 1200.84345436 C-245.3690889 1175.04997554 -245.35648692 1149.25651321 -245.3545332 1123.46302605 C-245.35446829 1122.66104229 -245.35440339 1121.85905854 -245.35433652 1121.03277224 C-245.35374407 1113.70733552 -245.35323709 1106.38189879 -245.35283767 1099.05646205 C-245.35183663 1080.84714824 -245.34952944 1062.63783471 -245.34629822 1044.42852116 C-245.34615191 1043.599384 -245.3460056 1042.77024684 -245.34585486 1041.91598431 C-245.33861892 1001.60461954 -245.31615298 961.29326496 -245.29277515 920.98190689 C-245.26028619 864.94447111 -245.23904038 808.907047 -245.23125172 752.8696022 C-245.23100655 751.12551839 -245.23076105 749.38143458 -245.23051523 747.63735077 C-245.22929164 738.94062197 -245.22808951 730.24389317 -245.22689344 721.54716437 C-245.22677521 720.68883013 -245.22665698 719.83049589 -245.22653516 718.94615153 C-245.22593974 714.61914197 -245.22534909 710.29213241 -245.22476701 705.96512285 C-245.21732436 650.86939603 -245.20152654 595.77367134 -245.18356783 540.67794704 C-245.18251926 537.45496948 -245.18147274 534.23199193 -245.18042827 531.00901437 C-245.18017001 530.21257394 -245.17991175 529.41613352 -245.17964566 528.59555854 C-245.17599752 517.29986153 -245.17275426 506.00416447 -245.16983351 494.70846725 C-245.16084553 459.976639 -245.14919776 425.24481602 -245.12763987 390.512993 C-245.12587186 387.64642535 -245.12411527 384.77985769 -245.12236691 381.91329002 C-245.12193572 381.20979343 -245.12150453 380.50629684 -245.12106028 379.78148217 C-245.11431599 368.64784395 -245.11085311 357.51420729 -245.10873639 346.38056734 C-245.10657685 335.42987157 -245.10072277 324.47918201 -245.09121418 313.52849003 C-245.08622184 307.67223958 -245.08278093 301.81599968 -245.083684 295.95974692 C-245.08446568 290.62974171 -245.08064561 285.29976013 -245.07319098 279.96976026 C-245.07130869 278.05606305 -245.07107864 276.1423633 -245.07272893 274.22866588 C-245.07991864 264.85755083 -244.97235645 255.59810022 -244.09518535 246.26098465 C-243.92271699 242.99881882 -244.15510281 239.91934708 -244.4985857 236.67355728 C-245.1211545 229.99104931 -244.268219 224.05064666 -242.9360857 217.50168228 C-242.708969 216.3413649 -242.4818523 215.18104752 -242.24785328 213.985569 C-232.98522618 168.27671998 -213.92387826 126.28340528 -182.9360857 91.25168228 C-182.20003101 90.40476822 -181.46397633 89.55785416 -180.70561695 88.68527603 C-171.23860934 77.94220546 -161.18524232 68.11511172 -149.9360857 59.25168228 C-148.82844131 58.33372828 -147.72308832 57.41300444 -146.61967945 56.48996353 C-114.5700103 29.89415238 -75.02607 9.68121982 -33.9360857 2.25168228 C-33.09992595 2.08479842 -32.2637662 1.91791455 -31.40226828 1.7459736 C-20.94301879 -0.13815031 -10.59483048 -0.02632717 0 0 Z " fill="#966CFE" transform="translate(244.93608570098877,-0.2516822814941406)"/>
<path d="M0 0 C0.79889648 0.16161621 1.59779297 0.32323242 2.42089844 0.48974609 C56.49566979 11.76935282 104.49351224 40.52137101 143.375 79.125 C144.74845581 80.48431641 144.74845581 80.48431641 146.1496582 81.87109375 C152.18980862 87.94033877 157.69981442 94.27809356 163 101 C163.57508301 101.72106934 164.15016602 102.44213867 164.74267578 103.18505859 C213.93864726 165.25671492 235.26081909 242.43457073 227 321 C225.95373596 329.38340201 224.56576724 337.69918612 223 346 C222.85868652 346.75861328 222.71737305 347.51722656 222.57177734 348.29882812 C211.09965362 407.72637112 175.24848213 468.08944066 127.7109375 505.83984375 C125.98229941 507.21727439 124.27609773 508.62368778 122.6015625 510.06640625 C97.48681631 531.57635448 65.80278665 548.21506994 34.41186523 558.21899414 C32.67317086 558.78201502 30.94163781 559.36732321 29.21508789 559.96655273 C21.91541799 562.48786554 14.60595102 564.41924678 7.0625 566.0625 C5.89460938 566.31926514 4.72671875 566.57603027 3.5234375 566.84057617 C-14.32691194 570.67173419 -32.33188501 573.14774216 -50.60546875 573.16796875 C-51.6871785 573.17129715 -52.76888824 573.17462555 -53.88337708 573.17805481 C-56.16500427 573.18308853 -58.44663874 573.18546424 -60.72827148 573.18530273 C-64.13343259 573.18746566 -67.53825638 573.20559473 -70.94335938 573.22460938 C-139.84368118 573.40519427 -209.03499346 554.68866379 -262 509 C-262.74507812 508.36578125 -263.49015625 507.7315625 -264.2578125 507.078125 C-276.77146985 496.13397721 -288.96191693 484.27319271 -299 471 C-299.92516442 469.81462248 -300.85099391 468.62976386 -301.77734375 467.4453125 C-309.07323444 458.01670376 -315.5422093 448.17266146 -321.76660156 438.01025391 C-322.76771959 436.37858212 -323.78395504 434.75619254 -324.8046875 433.13671875 C-334.40176168 417.70358594 -341.07270332 400.73585835 -348 384 C-351.42613644 387.30057123 -354.37859842 390.6634515 -357.1875 394.5 C-357.97125 395.55960938 -358.755 396.61921875 -359.5625 397.7109375 C-359.96597656 398.25717773 -360.36945312 398.80341797 -360.78515625 399.36621094 C-366.65674587 407.26264939 -372.76577832 414.98748478 -378.8125 422.75 C-385.1013356 430.82342424 -391.32526156 438.94487501 -397.53320312 447.08056641 C-399.6819294 449.892365 -401.84066058 452.69634155 -404 455.5 C-407.84384601 460.4920078 -411.67443778 465.49396907 -415.5 470.5 C-421.77599885 478.71206547 -428.07604469 486.90529082 -434.3828125 495.09375 C-439.0994732 501.22085907 -443.80479311 507.35643188 -448.5 513.5 C-454.7760318 521.71204044 -461.07604455 529.90529063 -467.3828125 538.09375 C-472.0994732 544.22085907 -476.80479311 550.35643188 -481.5 556.5 C-486.98562442 563.67781092 -492.48796751 570.84245047 -498 578 C-499.66695292 580.16644651 -501.33348969 582.33321301 -503 584.5 C-505.46404711 587.7037397 -507.92850341 590.90715941 -510.39453125 594.109375 C-515.1076 600.23103457 -519.80874598 606.36160412 -524.5 612.5 C-530.7760318 620.71204044 -537.07604455 628.90529063 -543.3828125 637.09375 C-548.66302209 643.95292902 -553.92691748 650.82435741 -559.18286133 657.70214844 C-563.24639098 663.01824632 -567.32394448 668.32330452 -571.40625 673.625 C-574.44607633 677.57677422 -577.47273515 681.53860018 -580.5 685.5 C-586.77599885 693.71206547 -593.07604469 701.90529082 -599.3828125 710.09375 C-604.66302209 716.95292902 -609.92691748 723.82435741 -615.18286133 730.70214844 C-619.24639098 736.01824632 -623.32394448 741.32330452 -627.40625 746.625 C-630.44607628 750.57677416 -633.47275091 754.5385882 -636.5 758.5 C-641.12383027 764.55067348 -645.76029644 770.59129408 -650.40625 776.625 C-653.44607628 780.57677416 -656.47275091 784.5385882 -659.5 788.5 C-664.12383027 794.55067348 -668.76029644 800.59129408 -673.40625 806.625 C-676.44607628 810.57677416 -679.47275091 814.5385882 -682.5 818.5 C-686.3255423 823.50604608 -690.15615406 828.50799228 -694 833.5 C-700.01944116 841.31846639 -706.008865 849.15983492 -712 857 C-718.79337362 865.88999675 -725.59250183 874.77523663 -732.41796875 883.640625 C-737.0684032 889.68637123 -741.69533244 895.75016216 -746.32666016 901.81054688 C-749.05033264 905.37428992 -751.77521663 908.93710631 -754.5 912.5 C-755.58333938 913.91666204 -756.66667271 915.33332872 -757.75 916.75 C-759.91666667 919.58333333 -762.08333333 922.41666667 -764.25 925.25 C-764.7867334 925.95213623 -765.3234668 926.65427246 -765.87646484 927.37768555 C-766.95392387 928.78615942 -768.03236587 930.19388191 -769.11181641 931.60083008 C-771.91878999 935.26211842 -774.70461121 938.93711291 -777.4609375 942.63671875 C-778.03263672 943.39855469 -778.60433594 944.16039062 -779.19335938 944.9453125 C-780.27665145 946.38970194 -781.35396595 947.83860377 -782.42382812 949.29296875 C-787.36922883 955.86117929 -791.94556974 960.69124994 -800 963 C-803.05410194 963.25726891 -803.05410194 963.25726891 -806.35122681 963.26742554 C-807.60740311 963.27595551 -808.86357941 963.28448547 -810.15782166 963.29327393 C-811.53701795 963.29257502 -812.91621414 963.29165203 -814.29541016 963.29052734 C-815.7577702 963.29651602 -817.22012709 963.30332235 -818.68247986 963.31088257 C-822.64302763 963.32850812 -826.60348893 963.33323628 -830.56407213 963.33451414 C-833.03893333 963.33593743 -835.51377264 963.34021022 -837.98862839 963.34550858 C-846.62329248 963.36399233 -855.25789491 963.37218063 -863.89257812 963.37060547 C-871.94182298 963.36940217 -879.99080051 963.39054547 -888.03997767 963.4220928 C-894.95391719 963.44822552 -901.86776917 963.45897414 -908.78175771 963.45769465 C-912.91002718 963.45718444 -917.03805858 963.46290091 -921.16627884 963.48405075 C-925.04550748 963.50338457 -928.92426959 963.50359141 -932.80351448 963.48901749 C-934.22734698 963.48692271 -935.65120834 963.49167006 -937.07499123 963.5037384 C-939.01751572 963.5191386 -940.96019865 963.50750747 -942.90274048 963.49447632 C-943.99003763 963.49556585 -945.07733479 963.49665539 -946.19758034 963.49777794 C-949.7870902 962.86019362 -950.76894656 961.85345483 -953 959 C-953.50024599 956.04443878 -953.50024599 956.04443878 -953.50057125 952.51911831 C-953.50608542 951.86706623 -953.51159958 951.21501414 -953.51728085 950.54320291 C-953.53092337 948.34876874 -953.51595479 946.15545808 -953.50120544 943.96104431 C-953.50509663 942.37580175 -953.51073561 940.79056267 -953.51797634 939.20533186 C-953.53277514 934.84183323 -953.52252369 930.47869384 -953.50823963 926.1152066 C-953.49715885 921.41236243 -953.50906278 916.70956986 -953.51808167 912.00672913 C-953.5320356 902.79125158 -953.52444224 893.57591078 -953.50940608 884.36043971 C-953.4925724 873.63639733 -953.49575287 862.91238926 -953.49950016 852.18833775 C-953.50538262 833.05904317 -953.49119168 813.92981436 -953.46655273 794.80053711 C-953.44262748 776.2233636 -953.43554929 757.64627795 -953.44604492 739.0690918 C-953.45744459 718.85546045 -953.45939624 698.64186977 -953.44494683 678.42823893 C-953.44342093 676.27441538 -953.44190057 674.12059182 -953.44038582 671.96676826 C-953.439628 670.90695201 -953.43887019 669.84713575 -953.43808941 668.75520385 C-953.43333948 661.27351761 -953.43520301 653.79184948 -953.43945122 646.3101635 C-953.44436905 637.1978254 -953.43843301 628.08557051 -953.41855692 618.97325151 C-953.40866005 614.32077486 -953.40360552 609.66842512 -953.41144943 605.01594162 C-953.41847535 600.76172508 -953.41177462 596.50776532 -953.3938458 592.25358278 C-953.38978116 590.70992249 -953.39083467 589.16623903 -953.39736467 587.6225872 C-953.40545105 585.53309307 -953.39528235 583.44447767 -953.38031673 581.35504055 C-953.3792876 580.19184715 -953.37825848 579.02865374 -953.37719816 577.83021206 C-953 575 -953 575 -951.61057544 573.12588143 C-949.42447163 571.59767379 -947.96818742 571.63046803 -945.31135559 571.63923645 C-944.34801804 571.63511246 -943.38468048 571.63098846 -942.39215088 571.6267395 C-941.33695251 571.63752533 -940.28175415 571.64831116 -939.19458008 571.65942383 C-938.08223495 571.65898575 -936.96988983 571.65854767 -935.82383728 571.65809631 C-932.13889144 571.66019009 -928.45439783 571.68354953 -924.76953125 571.70703125 C-922.2179133 571.71262509 -919.66629212 571.71689619 -917.1146698 571.71989441 C-911.07979791 571.73018726 -905.04512082 571.75384301 -899.01032704 571.78394288 C-892.13979452 571.81746777 -885.26925425 571.83396806 -878.3986603 571.84902918 C-864.26568331 571.88039217 -850.13285056 571.93316458 -836 572 C-834.83628354 574.32743293 -834.87114796 575.67480004 -834.86412811 578.26699734 C-834.85927037 579.1678454 -834.85441262 580.06869346 -834.84940767 580.99683994 C-834.84911169 581.99283256 -834.8488157 582.98882518 -834.84851074 584.01499939 C-834.84427833 585.06814805 -834.84004592 586.12129671 -834.83568525 587.20635897 C-834.82260053 590.75858637 -834.81662105 594.3107913 -834.81054688 597.86303711 C-834.80260912 600.40030557 -834.79422155 602.93757266 -834.78541565 605.47483826 C-834.76732469 610.94999268 -834.75221035 616.42514279 -834.73963928 621.90031242 C-834.72136445 629.81981797 -834.69669928 637.73929382 -834.67026538 645.65877587 C-834.62744896 658.51103305 -834.58834008 671.36329843 -834.55224609 684.21557617 C-834.54900189 685.37006719 -834.54900189 685.37006719 -834.54569215 686.54788125 C-834.53036418 692.01108723 -834.51516777 697.47429357 -834.5 702.9375 C-834.48267731 709.17635117 -834.46529244 715.41520216 -834.44775391 721.65405273 C-834.4445156 722.80668754 -834.4445156 722.80668754 -834.44121188 723.98260789 C-834.40512465 736.78460796 -834.36517231 749.58659315 -834.32245111 762.38857275 C-834.29627161 770.29023626 -834.27361822 778.19189521 -834.25546753 786.09358133 C-834.24132336 792.14429999 -834.22219746 798.19499203 -834.20121574 804.2456913 C-834.19343968 806.73260395 -834.18737891 809.21952262 -834.18312263 811.70644379 C-834.17710323 815.09033393 -834.16506828 818.47414999 -834.15148926 821.85801697 C-834.15119327 822.85177886 -834.15089728 823.84554076 -834.15059233 824.86941665 C-834.14573458 825.77287246 -834.14087684 826.67632827 -834.13587189 827.60716152 C-834.13375592 828.38868098 -834.13163995 829.17020043 -834.12945986 829.9754023 C-834.0732911 832.2052013 -834.0732911 832.2052013 -833 835 C-829.47653144 834.44214118 -828.16320039 833.42541033 -826.0390625 830.59765625 C-825.49241943 829.88150146 -824.94577637 829.16534668 -824.38256836 828.42749023 C-823.8025708 827.64704346 -823.22257324 826.86659668 -822.625 826.0625 C-821.36878514 824.40862964 -820.11226629 822.75499013 -818.85546875 821.1015625 C-818.21528809 820.25239258 -817.57510742 819.40322266 -816.91552734 818.52832031 C-813.96396328 814.6325266 -810.94857987 810.78733844 -807.9375 806.9375 C-802.88554939 800.45146995 -797.87942988 793.93174436 -792.89428711 787.39428711 C-788.37714339 781.47694506 -783.80786512 775.60125747 -779.23046875 769.73046875 C-775.29237165 764.67468555 -771.38584244 759.59603182 -767.5 754.5 C-763.032415 748.64105033 -758.53031369 742.81057897 -754 737 C-747.82108093 729.07299055 -741.70341432 721.10088962 -735.60888672 713.10888672 C-732.90914155 709.57013122 -730.20431841 706.03526104 -727.5 702.5 C-724.21416936 698.20364014 -720.92874257 693.90697286 -717.64453125 689.609375 C-711.96898284 682.1834238 -706.28379536 674.76522047 -700.58203125 667.359375 C-695.9315968 661.31362877 -691.30466756 655.24983784 -686.67333984 649.18945312 C-683.94966736 645.62571008 -681.22478337 642.06289369 -678.5 638.5 C-677.41666062 637.08333796 -676.33332729 635.66667128 -675.25 634.25 C-626.5 570.5 -626.5 570.5 -577.75 506.75 C-577.2135083 506.04842773 -576.6770166 505.34685547 -576.12426758 504.62402344 C-575.04339983 503.21059349 -573.96250799 501.79718196 -572.8815918 500.38378906 C-570.13533495 496.79275299 -567.38952697 493.2013752 -564.64453125 489.609375 C-558.96898284 482.1834238 -553.28379536 474.76522047 -547.58203125 467.359375 C-542.37155679 460.58555491 -537.18890501 453.79034472 -532 447 C-525.20662638 438.11000325 -518.40749817 429.22476337 -511.58203125 420.359375 C-506.37155679 413.58555491 -501.18890501 406.79034472 -496 400 C-487.5587076 388.95349113 -479.10044147 377.92057319 -470.6171875 366.90625 C-465.9005268 360.77914093 -461.19520689 354.64356812 -456.5 348.5 C-452.61102553 343.41136809 -448.7183651 338.32568142 -444.8125 333.25 C-444.01328125 332.21101563 -443.2140625 331.17203125 -442.390625 330.1015625 C-440.77898527 328.01064428 -439.16487922 325.92190649 -437.546875 323.8359375 C-432.94620961 317.896502 -428.40713616 311.91378703 -423.9375 305.875 C-423.45998291 305.2351416 -422.98246582 304.5952832 -422.49047852 303.93603516 C-418.1588921 298.04836524 -416.9162113 293.2288706 -418 286 C-419.4882998 282.85871149 -421.64345796 280.53328269 -424 278 C-424.8353125 277.08347656 -425.670625 276.16695313 -426.53125 275.22265625 C-427.93581255 273.68621225 -429.34396541 272.15364843 -430.76123047 270.62890625 C-434.56714511 266.52687633 -438.11990041 262.26201767 -441.62890625 257.90234375 C-444.31830295 254.61038041 -447.09145595 251.39972491 -449.875 248.1875 C-454.35798458 243.00145517 -458.63993413 237.6952323 -462.83520508 232.27490234 C-466.7704112 227.22033921 -470.90804215 222.35712314 -475.1171875 217.52929688 C-477.2430164 215.08545314 -479.20016028 212.69975958 -481 210 C-481.00586624 210.76484207 -481.01173248 211.52968414 -481.01777649 212.31770325 C-481.07597954 219.56954817 -481.14821081 226.82106027 -481.23571491 234.07260609 C-481.28020666 237.79960224 -481.31950752 241.5264944 -481.34643555 245.25366211 C-481.37268257 248.85895545 -481.41323057 252.46384393 -481.46318626 256.0688839 C-481.4797119 257.43574629 -481.49131432 258.80267847 -481.49761391 260.16962624 C-481.55442004 271.37577367 -482.38316616 281.44372959 -489.3125 290.5625 C-489.73982422 291.13347412 -490.16714844 291.70444824 -490.60742188 292.29272461 C-492.05267247 294.21044132 -493.52409517 296.1057906 -495 298 C-496.13951985 299.47901496 -497.27883467 300.9581879 -498.41796875 302.4375 C-501.38580028 306.27726446 -504.37549114 310.09946966 -507.37060547 313.91796875 C-511.28315602 318.91740403 -515.13949387 323.96033741 -519 329 C-519.47195801 329.61601074 -519.94391602 330.23202148 -520.43017578 330.86669922 C-528.26765795 341.09974136 -536.08182101 351.35053338 -543.890625 361.60546875 C-546.6069553 365.17242576 -549.3258025 368.73744067 -552.046875 372.30078125 C-559.42953641 381.97273022 -566.77969416 391.66655442 -574.04125977 401.42993164 C-577.24799264 405.72717715 -580.52166564 409.91901638 -584 414 C-585.47640479 412.92371893 -585.47640479 412.92371893 -587 411 C-587.37604749 407.99551249 -587.37604749 407.99551249 -587.37752342 404.22049713 C-587.38188374 403.5240128 -587.38624407 402.82752848 -587.39073652 402.10993856 C-587.40175046 399.75852288 -587.39124266 397.40768655 -587.38095093 395.05627441 C-587.38440508 393.36052731 -587.389168 391.66478244 -587.39513266 389.9690423 C-587.40770573 385.29550472 -587.40144375 380.62214991 -587.39217401 375.9486115 C-587.38540956 370.91378212 -587.39585176 365.87898503 -587.40411377 360.84416199 C-587.41748122 350.97551747 -587.41455998 341.10694124 -587.40587585 331.23829401 C-587.39911153 323.22064996 -587.39817714 315.20302511 -587.4014473 307.18537903 C-587.401907 306.0459782 -587.40236669 304.90657737 -587.40284032 303.73264924 C-587.40379946 301.41826403 -587.4047721 299.10387882 -587.4057581 296.78949362 C-587.41432082 275.06737531 -587.40446404 253.34529493 -587.388357 231.62318283 C-587.37495302 212.96865888 -587.37728087 194.31419092 -587.39111328 175.65966797 C-587.40715354 154.01736894 -587.41349676 132.37510319 -587.40427649 110.73279905 C-587.4033208 108.4267397 -587.40237769 106.12068034 -587.4014473 103.81462097 C-587.40098447 102.67987875 -587.40052164 101.54513653 -587.40004479 100.37600818 C-587.39745023 92.36433692 -587.40183591 84.35268669 -587.40888596 76.34101868 C-587.41728391 66.58271231 -587.41505683 56.82447837 -587.39904372 47.06618035 C-587.39113798 42.08359166 -587.38810845 37.1011239 -587.39799118 32.118536 C-587.40689112 27.56267252 -587.40208342 23.00704276 -587.38605852 18.45120066 C-587.38269067 16.79781823 -587.38444937 15.14441628 -587.39168589 13.49104625 C-587.40073222 11.2535794 -587.39153075 9.0169263 -587.37752342 6.77950287 C-587.37679284 4.91087027 -587.37679284 4.91087027 -587.37604749 3.00448751 C-587 -0 -587 -0 -585.68100989 -1.90411139 C-582.83708678 -3.7581296 -580.30308325 -3.27808832 -577 -3 C-573.74047852 -2.16479492 -573.74047852 -2.16479492 -570.37890625 -0.98046875 C-569.45933136 -0.65934868 -569.45933136 -0.65934868 -568.5211792 -0.33174133 C-566.52990342 0.36966603 -564.54595835 1.08930428 -562.5625 1.8125 C-561.87803802 2.05887207 -561.19357605 2.30524414 -560.4883728 2.55908203 C-506.86863055 21.90550352 -454.68092423 55.99472135 -419.16796875 101.26171875 C-416.53440943 104.58807025 -413.77457377 107.79119767 -411 111 C-406.67972984 116.01232597 -402.4489998 121.08540892 -398.27734375 126.22265625 C-395.71795946 129.34396367 -393.11406209 132.4245003 -390.5 135.5 C-386.37892208 140.34954051 -382.33008517 145.25160964 -378.3125 150.1875 C-375.27995997 153.87572436 -372.18906001 157.51262854 -369.09692383 161.15087891 C-365.34749461 165.5701078 -361.67445558 170.04839809 -358.015625 174.54296875 C-355.39321207 177.73966978 -352.70787294 180.87553122 -350 184 C-348.14949885 181.22424828 -346.99878514 178.76367405 -345.75 175.6875 C-333.65570317 146.27086257 -318.7272841 119.24981002 -298 95 C-297.35160156 94.23945313 -296.70320312 93.47890625 -296.03515625 92.6953125 C-285.35306887 80.51650271 -273.83340369 68.898993 -261 59 C-259.49373047 57.76830078 -259.49373047 57.76830078 -257.95703125 56.51171875 C-224.49513627 29.24295069 -184.9270989 10.02965071 -143 0 C-142.19739746 -0.19432617 -141.39479492 -0.38865234 -140.56787109 -0.58886719 C-95.09996093 -11.33020404 -45.49808465 -9.37635254 0 0 Z " fill="#FEFEFE" transform="translate(1220,120)"/>
<path d="M0 0 C6.84416638 5.9426157 12.10791077 13.90623542 17.56201172 21.11181641 C20.26327136 24.65876752 23.00935973 28.17094998 25.75 31.6875 C26.94926802 33.22782623 28.14848623 34.76819123 29.34765625 36.30859375 C29.94980957 37.08187012 30.55196289 37.85514648 31.17236328 38.65185547 C32.98986598 40.98697983 34.80575788 43.3233471 36.62109375 45.66015625 C42.33384553 53.01302566 48.05696853 60.35706179 53.81713867 67.67285156 C58.17070599 73.20668407 62.48903024 78.76773655 66.80859375 84.328125 C70.35890456 88.89613978 73.92093702 93.45448382 77.5 98 C81.68700345 103.31761863 85.84781802 108.65515211 90 114 C95.53445387 121.12333177 101.09308187 128.22696727 106.67333984 135.31445312 C109.41220308 138.79423078 112.1468253 142.27734312 114.88232422 145.75976562 C117.13507712 148.62734065 119.38868889 151.49422954 121.64453125 154.359375 C127.38952887 161.65890138 133.10203617 168.983049 138.80126953 176.31835938 C143.73336773 182.6636856 148.69255593 188.98718634 153.66455078 195.30126953 C155.04870084 197.0619489 156.42906011 198.82554547 157.80859375 200.58984375 C164.33674111 208.93381207 170.92519277 217.22006965 177.79296875 225.2890625 C178.27040527 225.85012695 178.7478418 226.41119141 179.23974609 226.98925781 C180.19520023 228.11002323 181.15252076 229.22920056 182.11181641 230.34667969 C185.20482105 233.97402036 188.0191053 237.69118088 190.5859375 241.70703125 C192.00386534 243.26210128 192.00386534 243.26210128 194.6015625 243.26171875 C196.94997494 243.25876826 196.94997494 243.25876826 198 242 C198.10492597 239.77934838 198.13801716 237.55530273 198.14476013 235.33218384 C198.14828698 234.62699155 198.15181382 233.92179927 198.15544754 233.19523752 C198.16618583 230.81455942 198.16982436 228.43392126 198.17358398 226.05322266 C198.1798853 224.35352914 198.18665062 222.6538373 198.19384766 220.95414734 C198.20854664 217.28512542 198.22025952 213.61611 198.22979546 209.94707108 C198.24520669 204.14928416 198.26915526 198.3515525 198.29469299 192.55380249 C198.36600647 176.0642241 198.42571165 159.57461393 198.47680664 143.08496094 C198.50508046 133.98470198 198.54044613 124.88449788 198.58346039 115.78429639 C198.610287 110.01724133 198.6281589 104.25024836 198.63949764 98.48314309 C198.64860472 94.89821528 198.66595761 91.31336305 198.68567657 87.72847939 C198.69316867 86.06236645 198.69723413 84.39623417 198.69767189 82.73010445 C198.69874997 80.46051314 198.71195733 78.1913089 198.72825623 75.92178345 C198.73248816 74.65008615 198.7367201 73.37838886 198.74108028 72.06815529 C199 69 199 69 201 66 C210.4041505 63.52379685 221.80199462 64.81702803 231.4921875 64.796875 C232.41362675 64.79404762 233.33506599 64.79122025 234.28442764 64.78830719 C239.14665251 64.77341311 244.00884837 64.76411801 248.87109375 64.75976562 C253.88464821 64.75424938 258.89793543 64.73012778 263.91140556 64.70179367 C267.78043409 64.68318208 271.64939744 64.67796281 275.51846695 64.67642975 C277.36763112 64.67340684 279.21679424 64.66539055 281.06591415 64.65224457 C283.64555311 64.63519107 286.22452679 64.63706076 288.80419922 64.64355469 C289.56375412 64.6343399 290.32330902 64.62512512 291.10588074 64.6156311 C297.08416445 64.66277771 300.16017901 66.19673175 304.359375 70.3125 C309.23401496 75.7924874 313.97843677 81.34431833 318.5859375 87.05078125 C321.33861873 90.4136847 324.16181769 93.70929569 327 97 C331.29995131 101.98921019 335.50486032 107.04221923 339.65625 112.15625 C342.39302049 115.47686486 345.1910295 118.74046782 348 122 C352.29972713 126.98940767 356.50485409 132.04221156 360.65625 137.15625 C363.39302049 140.47686486 366.1910295 143.74046782 369 147 C373.29972713 151.98940767 377.50485409 157.04221156 381.65625 162.15625 C384.39302049 165.47686486 387.1910295 168.74046782 390 172 C394.29972713 176.98940767 398.50485409 182.04221156 402.65625 187.15625 C405.39302049 190.47686486 408.1910295 193.74046782 411 197 C415.29972713 201.98940767 419.50485409 207.04221156 423.65625 212.15625 C426.39302049 215.47686486 429.1910295 218.74046782 432 222 C436.29853483 226.98802412 440.50294555 232.03902002 444.65234375 237.15234375 C447.90981608 241.10358722 451.25710797 244.97514033 454.60693359 248.84814453 C458.37705275 253.22371978 461.97508804 257.70992566 465.4765625 262.3046875 C465.97929688 262.86414063 466.48203125 263.42359375 467 264 C467.66 264 468.32 264 469 264 C470.61948169 260.76103662 470.12145695 257.21286354 470.10006714 253.65541077 C470.09880487 252.78193841 470.09754259 251.90846605 470.09624207 251.00852484 C470.09083908 248.0643272 470.07831118 245.12020129 470.06591797 242.17602539 C470.06072787 240.07225147 470.05601912 237.96847632 470.05175781 235.86470032 C470.04179856 231.32589161 470.02894225 226.78710329 470.01403427 222.24830818 C469.99103214 215.07687792 469.97768594 207.90545053 469.96633911 200.73399353 C469.93285275 180.33833277 469.89121471 159.94271281 469.82861328 139.54711914 C469.79414038 128.28941078 469.77029864 117.0317327 469.75840485 105.77397722 C469.75161846 99.81192136 469.73910054 93.84999379 469.71337509 87.88798714 C469.6891912 82.28284116 469.67872959 76.67784173 469.67897034 71.07264519 C469.67654033 69.01142983 469.66892534 66.95021335 469.65584183 64.88903809 C469.6387683 62.08302821 469.6400083 59.27761422 469.64596558 56.47157288 C469.63654493 55.6490127 469.62712429 54.82645253 469.61741817 53.9789663 C469.65636248 48.52469854 469.65636248 48.52469854 471.30142117 46.01286602 C476.76483417 42.75502171 485.33126144 43.84613765 491.49926758 43.83886719 C492.51974182 43.83390228 493.54021606 43.82893738 494.59161377 43.82382202 C497.94259326 43.80930164 501.29352557 43.80241896 504.64453125 43.796875 C506.98003642 43.79111963 509.31554159 43.78536195 511.65104675 43.77960205 C516.53388691 43.76912406 521.41671074 43.76325901 526.29956055 43.75976562 C532.56553556 43.75425681 538.83129591 43.73016467 545.09720325 43.70179367 C549.91406398 43.68321317 554.73087219 43.67796437 559.54776573 43.67642975 C561.85910923 43.6733974 564.17045169 43.66534942 566.48176003 43.65224457 C569.70391165 43.63526405 572.92552736 43.63704362 576.14770508 43.64355469 C577.58541512 43.62973251 577.58541512 43.62973251 579.0521698 43.6156311 C580.36624313 43.62398483 580.36624313 43.62398483 581.7068634 43.63250732 C582.84858867 43.63030748 582.84858867 43.63030748 584.0133791 43.6280632 C586.6516399 44.12200056 587.38168885 44.86436272 589 47 C589.37604749 49.6518259 589.37604749 49.6518259 589.37752342 52.92054749 C589.38534666 54.16475936 589.39316991 55.40897123 589.40123022 56.6908865 C589.39474344 58.07916326 589.38797345 59.46743873 589.38095093 60.85571289 C589.38440548 62.32459645 589.38916869 63.79347743 589.39513266 65.26235294 C589.4077002 69.30881341 589.4014463 73.35506266 589.39217401 77.40152407 C589.38540729 81.76150249 589.39585289 86.12144369 589.40411377 90.48141479 C589.41747879 99.02657197 589.41456107 107.57165025 589.40587585 116.11681056 C589.39911058 123.05941718 589.39817756 130.00200163 589.4014473 136.9446106 C589.401907 137.93136656 589.40236669 138.91812252 589.40284032 139.93478018 C589.40379946 141.93913039 589.4047721 143.9434806 589.4057581 145.9478308 C589.4143201 164.7585196 589.40446516 183.5691646 589.388357 202.37984622 C589.37495308 218.53287515 589.37728095 234.68583942 589.39111328 250.83886719 C589.4071548 269.58059346 589.41349605 288.3222813 589.40427649 307.06401348 C589.40332081 309.06113878 589.4023777 311.05826409 589.4014473 313.0553894 C589.40098447 314.03810556 589.40052164 315.02082172 589.40004479 316.03331715 C589.39745061 322.97047315 589.4018351 329.90760484 589.40888596 336.84475708 C589.41728531 345.29469619 589.41505389 353.74455165 589.39904372 362.19448113 C589.39113985 366.50873816 589.38810525 370.82285556 589.39799118 375.13711166 C589.40689504 379.0823487 589.402077 383.02731596 589.38605852 386.97252834 C589.38269233 388.4038392 589.38444574 389.83517261 589.39168589 391.26646912 C589.40073961 393.20411485 589.38970667 395.14182393 589.37752342 397.07945251 C589.37703637 398.15813064 589.37654931 399.23680876 589.37604749 400.3481741 C589 403 589 403 587.60140479 404.80753422 C584.70540509 406.96400369 582.8370506 407.12966371 579.27784729 407.14717102 C578.28129623 407.15432632 577.28474518 407.16148163 576.25799561 407.16885376 C574.61157074 407.17288712 574.61157074 407.17288712 572.93188477 407.17700195 C571.77883347 407.18357315 570.62578217 407.19014435 569.43778992 407.19691467 C565.60566141 407.21669135 561.77357227 407.22832288 557.94140625 407.23828125 C556.63306257 407.24235678 555.32471889 407.2464323 553.97672844 407.25063133 C547.7611678 407.26969429 541.54561905 407.28391725 535.33003479 407.2922433 C528.17313042 407.30198965 521.01653748 407.32823571 513.8597427 407.36874419 C508.31902174 407.39901942 502.77838939 407.41372332 497.23758739 407.41702431 C493.93336933 407.4193639 490.62955727 407.43018424 487.32541084 407.45348549 C483.62758066 407.47793219 479.93055292 407.47690063 476.23266602 407.4699707 C475.15326752 407.48278076 474.07386902 407.49559082 472.96176147 407.50878906 C463.02521169 407.44127209 454.10415885 404.85323178 446.37109375 398.4296875 C442.10340479 394.0565367 438.63226214 389.08089572 435.0546875 384.140625 C432.27756406 380.32362508 429.32895973 376.70098258 426.25 373.125 C422.39286444 368.63818365 418.63419667 364.09280598 414.95703125 359.45703125 C411.35294869 354.93214517 407.66894134 350.47231298 404 346 C402.60403235 344.29177642 401.20820102 342.58344143 399.8125 340.875 C395.88554489 336.07462405 391.94393032 331.28643525 388 326.5 C382.65314796 320.01094999 377.31943682 313.51155167 372 307 C370.50014304 305.16654964 369.0001406 303.33321829 367.5 301.5 C364.5 297.83333333 361.5 294.16666667 358.5 290.5 C357.75105469 289.58476563 357.00210938 288.66953125 356.23046875 287.7265625 C354.79500065 285.97182216 353.36006204 284.21664845 351.92578125 282.4609375 C346.68599419 276.04922025 341.42557819 269.65473374 336.15795898 263.26586914 C332.88306284 259.29252914 329.62172581 255.30892432 326.375 251.3125 C322.35907947 246.39073273 318.22979838 241.57058767 314.07177734 236.76879883 C313.58660645 236.20700928 313.10143555 235.64521973 312.6015625 235.06640625 C312.14426758 234.53805176 311.68697266 234.00969727 311.21582031 233.46533203 C310 232 310 232 308.3359375 229.58984375 C307.89507813 229.06519531 307.45421875 228.54054688 307 228 C306.01 228 305.02 228 304 228 C303.92984504 254.26064435 303.87698002 280.5212746 303.84456348 306.78199387 C303.82911027 318.975951 303.80805028 331.16984983 303.77368164 343.36376953 C303.74373199 353.99492948 303.72441376 364.62604719 303.71773452 375.25724816 C303.7138317 380.88370765 303.7046917 386.51004631 303.68280983 392.13646698 C303.66235677 397.43876099 303.65618399 402.74088508 303.66067696 408.0432148 C303.65985569 409.98292783 303.65394288 411.9226469 303.64238358 413.86232567 C303.57186629 426.31227248 303.71291234 438.09748206 310.08203125 449.234375 C310.67693359 450.29011719 311.27183594 451.34585937 311.88476562 452.43359375 C312.52091797 453.52800781 313.15707031 454.62242187 313.8125 455.75 C314.48618423 456.93293491 315.15868756 458.11654303 315.83007812 459.30078125 C317.86578229 462.87944366 319.92891439 466.44172367 322 470 C322.90564697 471.55750977 322.90564697 471.55750977 323.82958984 473.14648438 C326.12223563 477.08113424 328.41960751 481.01291452 330.7277832 484.93847656 C335.76393212 493.52344728 340.58638786 502.21945345 345.39453125 510.93359375 C350.04453663 519.33826185 354.84506074 527.64336736 359.71948242 535.91943359 C363.87656279 543.00377917 367.88293256 550.16365726 371.84146118 557.3598938 C380.07265084 573.60784384 380.07265084 573.60784384 391 588 C393.43733577 588.58011734 393.43733577 588.58011734 396 588 C397.94075721 585.92490473 397.94075721 585.92490473 399.4609375 583.04296875 C400.0895166 581.96394287 400.7180957 580.88491699 401.36572266 579.77319336 C402.03603699 578.57827353 402.70578052 577.38303335 403.375 576.1875 C404.0811145 574.95695637 404.78865654 573.72723089 405.49755859 572.49829102 C407.33251005 569.30422829 409.14255677 566.09682684 410.94360352 562.88354492 C411.95302176 561.08376175 412.96686499 559.28655932 413.98242188 557.49023438 C425.96678889 536.25692905 437.44353601 514.74607817 448.8397522 493.19311523 C449.99385647 491.01161258 451.14939184 488.83087434 452.30541992 486.65039062 C453.06562611 485.21616368 453.82579886 483.781919 454.5859375 482.34765625 C454.95868301 481.64444244 455.33142853 480.94122864 455.71546936 480.21670532 C457.83022494 476.22287729 459.93063829 472.22201503 462.01641846 468.21298218 C462.95705596 466.40851404 463.90317292 464.60704483 464.8515625 462.80664062 C465.98926378 460.6452588 467.11771907 458.47897005 468.234375 456.30664062 C471.70293995 449.75732766 476.10657515 441.44671243 483 438 C484.43182823 437.90810163 485.86786948 437.87806542 487.30264282 437.87974548 C488.20570663 437.87837082 489.10877045 437.87699615 490.03919983 437.87557983 C491.0325383 437.87917511 492.02587677 437.88277039 493.04931641 437.88647461 C494.09324051 437.88632858 495.13716461 437.88618256 496.21272278 437.8860321 C499.67569023 437.88673078 503.1386044 437.89452109 506.6015625 437.90234375 C508.99767019 437.90420809 511.39377827 437.90563192 513.78988647 437.90663147 C520.10608975 437.91045539 526.42227014 437.92028462 532.73846436 437.93133545 C539.17980642 437.94155226 545.62115217 437.94612967 552.0625 437.95117188 C564.70834311 437.96190698 577.35417034 437.97879055 590 438 C588.55636995 442.47818241 586.83892542 446.44959002 584.61328125 450.6015625 C584.11311493 451.53926483 584.11311493 451.53926483 583.60284424 452.49591064 C582.51045178 454.54132286 581.41150694 456.58313534 580.3125 458.625 C579.54051106 460.06764472 578.76895144 461.51051925 577.99780273 462.95361328 C576.03910363 466.6164348 574.07511047 470.27638472 572.10913086 473.93530273 C569.85526777 478.13097083 567.60659777 482.32942319 565.35693359 486.52734375 C564.154854 488.76991728 562.95204749 491.0121013 561.74853516 493.25390625 C558.28263068 499.715545 554.83753909 506.18765026 551.4140625 512.671875 C551.02432251 513.41001434 550.63458252 514.14815369 550.23303223 514.90866089 C548.66141803 517.88557511 547.08990052 520.86254032 545.51867676 523.83966064 C540.82104022 532.73596196 536.06369673 541.58824548 531.12719727 550.35498047 C528.22125405 555.53594205 525.57305144 560.82067101 522.953125 566.15234375 C520.55736593 570.94258483 517.95607585 575.62038712 515.375 580.3125 C510.9720238 588.31967624 506.69240289 596.3806315 502.5 604.5 C497.93170949 613.34362861 493.24459944 622.10972464 488.44921875 630.83203125 C484.87851959 637.34385894 481.41691005 643.90631414 478 650.5 C473.05306906 660.0430042 467.9604968 669.49885535 462.7890625 678.921875 C462.36487691 679.71320233 461.94069132 680.50452967 461.50365162 681.31983662 C460 684 460 684 458.43417645 686.32911205 C453.25521945 694.45133554 453.23316306 702.00082966 453.45825195 711.30004883 C453.47474954 712.91750636 453.48850724 714.53499378 453.49975586 716.15249634 C453.52959461 719.61447392 453.57844764 723.07545447 453.64251137 726.53696632 C453.74364172 732.01269922 453.80105139 737.48837728 453.85282898 742.96476746 C453.93974613 751.62393095 454.05503956 760.2824392 454.18289393 768.94108647 C454.41177157 784.45778925 454.60628168 799.97487145 454.76921052 815.49240512 C454.82766223 820.93448224 454.90315641 826.37597842 454.99248278 831.81763327 C455.04531372 835.20044552 455.08576489 838.58332834 455.12316132 841.96634293 C455.14316867 843.53292912 455.16846853 845.09945817 455.1994915 846.66586494 C455.24124277 848.80681738 455.26406823 850.94719272 455.28242493 853.0884552 C455.30035756 854.28540418 455.3182902 855.48235315 455.33676624 856.71557331 C454.95944646 860.39551211 453.83749774 862.81670899 452 866 C442.0701752 866.13264575 432.14032451 866.26314743 422.21043873 866.39115143 C417.59608932 866.45069627 412.9817506 866.5108914 408.36743164 866.57275391 C398.6917235 866.70202552 389.01607341 866.82018131 379.33996773 866.91566467 C374.62578257 866.96428915 369.91281901 867.03509115 365.19935703 867.1306839 C363.12193047 867.17061078 361.04458993 867.20188481 358.96696472 867.22937012 C356.4892553 867.26293017 354.01168253 867.31117891 351.53462219 867.3770752 C350.45545029 867.38734741 349.37627838 867.39761963 348.2644043 867.40820312 C347.3365361 867.42596802 346.40866791 867.44373291 345.4526825 867.46203613 C342.11262644 866.83283664 341.09450936 865.65283201 339 863 C338.49777794 860.02134514 338.49777794 860.02134514 338.49447632 856.47409058 C338.4883862 855.8202766 338.48229608 855.16646263 338.47602141 854.49283612 C338.460413 852.3032927 338.47321216 850.11484197 338.48583984 847.92529297 C338.48037918 846.35473442 338.47313784 844.78418119 338.46424866 843.21363831 C338.44890183 839.83106307 338.44611369 836.4487912 338.45301437 833.06618881 C338.46380031 827.71141463 338.44641721 822.35695714 338.42520142 817.00222778 C338.39492204 808.52505204 338.38324562 800.04796996 338.37962496 791.57074463 C338.37298731 776.41128435 338.34384207 761.25189005 338.2945286 746.09250939 C338.27808465 740.77645246 338.27260366 735.46053174 338.27611899 730.14445186 C338.27655821 726.82579119 338.26895884 723.50718125 338.25944328 720.18853569 C338.25677614 718.65758025 338.25748538 717.12661432 338.26195335 715.59566307 C338.29488572 703.4653068 337.52460279 693.60922994 331.375 683 C330.89627441 682.15171631 330.41754883 681.30343262 329.92431641 680.42944336 C325.25836835 672.25410828 320.29407295 664.25874767 315.32543945 656.26513672 C310.27342357 648.12541666 305.3820166 639.90420586 300.5625 631.625 C292.86660816 618.41503336 284.9741017 605.33315557 277.00488281 592.28662109 C275.07817725 589.12815662 273.15871343 585.96543076 271.2421875 582.80078125 C270.05743068 580.8462699 268.87253851 578.89184058 267.6875 576.9375 C267.12272949 576.00526611 266.55795898 575.07303223 265.97607422 574.11254883 C263.25019697 569.63058521 260.48889833 565.17878907 257.640625 560.7734375 C248.99856472 547.40610078 242.87760617 536.39242098 242.859375 520.16015625 C242.84103035 518.18944172 242.82145854 516.21873831 242.80078125 514.24804688 C242.77199066 511.16769798 242.75000409 508.08805992 242.74951172 505.00756836 C242.72107617 479.84007367 234.39275679 465.21070077 218.51953125 446.234375 C215.40078827 442.50098924 212.36549527 438.71155189 209.375 434.875 C205.61600464 430.0564822 201.82504678 425.26629508 198 420.5 C193.68121385 415.11573754 189.40078717 409.70331042 185.14453125 404.26953125 C181.7894776 399.99159751 178.4015606 395.74102029 175 391.5 C170.68138025 386.11560263 166.40078874 380.70331243 162.14453125 375.26953125 C158.78947697 370.99159671 155.40149511 366.74107353 152 362.5 C145.826089 354.8002439 139.73070581 347.04043258 133.64550781 339.27050781 C128.46230437 332.65436692 123.25762306 326.05722219 118 319.5 C112.74365357 312.94437 107.5405794 306.34861504 102.35888672 299.73388672 C100.07546705 296.82033183 97.78754555 293.91031584 95.5 291 C92.75951792 287.51343843 90.01990378 284.02621854 87.28515625 280.53515625 C82.55387244 274.4986907 77.79781792 268.48376068 73 262.5 C67.74365357 255.94437 62.5405794 249.34861504 57.35888672 242.73388672 C54.61651471 239.23472646 51.8682673 235.74017645 49.12036133 232.24536133 C46.84965605 229.35679895 44.58178015 226.46611439 42.3203125 223.5703125 C37.42266446 217.30612724 32.4673397 211.09618742 27.4375 204.9375 C22.68496356 199.11585167 18.04957495 193.22223397 13.48828125 187.25 C10.70439519 183.60564007 7.88849369 179.98677148 5.0625 176.375 C4.60149902 175.78251465 4.14049805 175.1900293 3.66552734 174.57958984 C0.61465674 170.51933221 0.61465674 170.51933221 -3 167 C-6.08995097 166.91776634 -6.08995097 166.91776634 -9 168 C-10.06211262 169.84976348 -10.06211262 169.84976348 -11 172 C-11.89305147 173.31304256 -12.81739766 174.60513759 -13.765625 175.87890625 C-14.31863281 176.62527344 -14.87164063 177.37164063 -15.44140625 178.140625 C-16.33666016 179.33945312 -16.33666016 179.33945312 -17.25 180.5625 C-18.52612294 182.28249179 -19.80216231 184.00254558 -21.078125 185.72265625 C-21.73103516 186.60066895 -22.38394531 187.47868164 -23.05664062 188.38330078 C-26.04970628 192.41341105 -29.02455748 196.45687142 -32 200.5 C-35.50867011 205.26397576 -39.01897831 210.02671838 -42.53515625 214.78515625 C-48.76817473 223.22455296 -54.959291 231.69117173 -61.08813477 240.20654297 C-65.75917359 246.68795694 -70.49246662 253.12244648 -75.24414062 259.54492188 C-76.33213081 261.01645737 -77.41378247 262.49270565 -78.48828125 263.97412109 C-79.44359312 265.25435008 -80.43745888 266.50743499 -81.48046875 267.71728516 C-88.28740101 275.93582693 -86.15000443 288.86231367 -86.1328125 298.93359375 C-86.13348787 300.34318559 -86.13445983 301.75277732 -86.13571167 303.16236877 C-86.13717429 306.09287645 -86.1350785 309.02335336 -86.13037109 311.95385742 C-86.12463749 315.70516843 -86.12798466 319.45640845 -86.13394356 323.20771694 C-86.13755668 326.10820553 -86.13640776 329.00867725 -86.13381577 331.90916634 C-86.13315049 333.29303051 -86.13396092 334.67689623 -86.13629532 336.06075859 C-86.13883818 337.98899175 -86.13427448 339.91723032 -86.12939453 341.84545898 C-86.12859894 342.94035141 -86.12780334 344.03524384 -86.12698364 345.16331482 C-86.01702851 347.61960053 -85.71289184 349.65900898 -85 352 C-74.62582174 350.01345523 -67.55820859 341.81012599 -60.08984375 334.84375 C-57.78940831 332.70562222 -55.44321789 330.62828116 -53.07421875 328.56640625 C-38.90815853 316.2156496 -25.72683439 302.8178302 -12.50927734 289.47241211 C-1.4628045 278.33964008 -1.4628045 278.33964008 4.44995117 273.32739258 C6.54102459 271.5366907 8.46073996 269.6017665 10.375 267.625 C13.45036222 264.45161827 14.79443193 263.12510612 19.3125 262.65625 C23.85656343 263.07984913 24.96203906 264.18222687 28 267.5 C28.85464844 268.4178125 29.70929688 269.335625 30.58984375 270.28125 C31.38519531 271.1784375 32.18054688 272.075625 33 273 C33.62003906 273.6909375 34.24007812 274.381875 34.87890625 275.09375 C36.00551074 276.36934859 37.12268746 277.65333338 38.23046875 278.9453125 C41.74679965 283.02829275 45.38945428 287.00043925 49 291 C50.50028679 292.66640851 52.00028872 294.33307353 53.5 296 C54.24894531 296.83144531 54.99789063 297.66289063 55.76953125 298.51953125 C57.20733191 300.11848645 58.64243873 301.71987014 60.07421875 303.32421875 C64.07173268 307.79463636 68.11828632 312.21374648 72.2175293 316.59082031 C73.44286958 317.90031457 74.66571232 319.21215055 75.88598633 320.52636719 C78.44751872 323.28477856 81.01547381 326.0154964 83.67578125 328.6796875 C89.48000481 334.63855289 89.48000481 334.63855289 90.1875 338.875 C89.51370752 345.24424586 82.50675418 350.0234522 78 354 C77.34515625 354.58265625 76.6903125 355.1653125 76.015625 355.765625 C74.79844418 356.83200466 73.57400817 357.89014056 72.34375 358.94140625 C69.08016561 361.80792121 65.91911747 364.7797927 62.75 367.75 C58.23137237 371.98447568 53.70092182 376.20246523 49.125 380.375 C47.08054086 382.2469729 45.03953936 384.1226689 43 386 C42.42185547 386.53157715 41.84371094 387.0631543 41.24804688 387.61083984 C28.02799655 399.80567596 15.35635376 412.54122233 2.68457031 425.29956055 C1.79866211 426.19070557 0.91275391 427.08185059 0 428 C-1.28632324 429.34928589 -1.28632324 429.34928589 -2.59863281 430.72583008 C-7.13773257 435.02449969 -10.8335913 435.29135053 -16.93971252 435.26069641 C-17.74547334 435.26452196 -18.55123416 435.26834751 -19.38141197 435.27228898 C-22.08450029 435.28261743 -24.78737614 435.27862717 -27.49047852 435.2746582 C-29.42706499 435.27900469 -31.36364975 435.28418762 -33.30023193 435.29014587 C-38.56244471 435.30355197 -43.82458573 435.3041129 -49.08681226 435.30158257 C-53.47582579 435.30051425 -57.86482473 435.30539252 -62.25383514 435.310188 C-72.60404895 435.32128812 -82.95422647 435.32171732 -93.30444336 435.31567383 C-103.99384305 435.30962847 -114.6831113 435.32195817 -125.37248856 435.3432439 C-134.5419755 435.36083388 -143.71142049 435.3668655 -152.88092369 435.36360615 C-158.3611435 435.36178946 -163.84126949 435.36446812 -169.32147408 435.37832069 C-174.47197445 435.39085262 -179.62226907 435.38899909 -184.77276611 435.37590981 C-186.66626491 435.37353456 -188.55977798 435.37631238 -190.45326042 435.38453293 C-193.03150615 435.39492206 -195.60905134 435.38696351 -198.18727112 435.3742218 C-198.94232093 435.38159609 -199.69737074 435.38897037 -200.47530085 435.39656812 C-205.50194884 435.34404832 -205.50194884 435.34404832 -207.96778774 433.64067364 C-211.3901869 428.20086217 -209.04128164 417.76617511 -208.76123047 411.42333984 C-208.02013557 394.2928759 -207.84275821 377.19434006 -207.86962891 360.05175781 C-207.8753993 356.32645577 -207.87197891 352.60122469 -207.86605644 348.87592506 C-207.86241558 345.94336425 -207.86360424 343.01081987 -207.86618423 340.07825851 C-207.86715212 338.05067649 -207.86417758 336.02309376 -207.86105347 333.99551392 C-207.878899 326.90034804 -208.14150814 319.89345217 -208.76264954 312.82458496 C-211.65778884 278.37103129 -200.06463004 251.08782896 -178.29296875 225.00390625 C-175.03272604 221.08299762 -171.96902019 217.03656898 -168.9375 212.9375 C-165.05978959 207.70443626 -161.09526193 202.56468462 -157 197.5 C-152.41435856 191.82431074 -147.99452974 186.04626236 -143.640625 180.19140625 C-139.82737566 175.07414418 -135.93080611 170.02738754 -132 165 C-127.08095977 158.70481171 -122.23832843 152.36023921 -117.45996094 145.95776367 C-113.92093411 141.21862131 -110.34714232 136.50767111 -106.75 131.8125 C-106.21826172 131.11833984 -105.68652344 130.42417969 -105.13867188 129.70898438 C-104.02168238 128.25094956 -102.9046566 126.79294255 -101.78759766 125.33496094 C-93.33279207 114.29128973 -84.89855389 103.23270434 -76.57348633 92.09082031 C-72.46098719 86.59461862 -68.29420299 81.14075411 -64.125 75.6875 C-58.43234325 68.2374511 -52.82979216 60.72865572 -47.28955078 53.16479492 C-42.27382441 46.33322528 -37.1378224 39.59745693 -31.98510742 32.86889648 C-26.77106874 26.04702125 -21.65678613 19.15659364 -16.60351562 12.21484375 C-6.24650332 -1.96186475 -6.24650332 -1.96186475 0 0 Z " fill="#FEFEFE" transform="translate(851,644)"/>
<path d="M0 0 C3.54830705 3.5168832 6.9125242 7.11320801 10.125 10.9375 C10.60018066 11.50106201 11.07536133 12.06462402 11.56494141 12.64526367 C15.38809565 17.20848484 19.08138025 21.86532194 22.73730469 26.56298828 C26.22023166 31.03245861 29.78421049 35.42941186 33.375 39.8125 C37.84191531 45.27272404 42.18068867 50.81215096 46.4375 56.4375 C51.43368048 63.03602909 56.6099536 69.45696315 61.89892578 75.82250977 C66.07077452 80.84914989 70.13777442 85.9460018 74.15527344 91.09643555 C81.29821768 100.69799669 81.29821768 100.69799669 89.5919342 109.20613098 C93.85732975 114.39462551 92.66596792 121.84251176 92.59936523 128.2019043 C92.60123092 129.76534413 92.60527106 131.32878264 92.61131287 132.89221191 C92.62130126 137.14539933 92.60005653 141.39792116 92.57283282 145.65101218 C92.54883929 150.15549554 92.55194599 154.65996913 92.55152893 159.164505 C92.54689193 166.77685578 92.52325626 174.38895771 92.48706055 182.0012207 C92.4504829 189.71154106 92.42887075 197.42167237 92.42553711 205.13208008 C92.42511656 206.06930495 92.424696 207.00652982 92.4242627 207.97215545 C92.42384832 208.90703139 92.42343395 209.84190733 92.42300701 210.80511284 C92.39325616 275.80788504 92.39325616 275.80788504 91.39853096 306.42206764 C91.33266167 308.46960696 91.27324608 310.51736818 91.22150993 312.56531334 C90.68986403 332.43632859 85.68926683 350.39547662 79 369 C78.32878886 370.99587328 77.66150625 372.99307669 77 374.9921875 C70.40402436 394.43051096 60.3606872 412.39950949 47 428 C46.34902344 428.76183594 45.69804688 429.52367187 45.02734375 430.30859375 C42.73248797 432.92086884 40.38229755 435.46705717 38 438 C37.47019531 438.56380371 36.94039062 439.12760742 36.39453125 439.70849609 C1.58730427 476.44185333 -46.98096678 495.14029602 -97.17272949 497.12548828 C-104.13540082 497.30202634 -111.09665347 497.32836327 -118.0612793 497.31567383 C-121.66551162 497.31251925 -125.26891544 497.33605578 -128.87304688 497.36132812 C-183.65757734 497.50966338 -238.87892225 482.40093139 -281 446 C-281.80308594 445.30648438 -282.60617187 444.61296875 -283.43359375 443.8984375 C-285.99417878 441.6374529 -288.50392924 439.33195601 -291 437 C-292.29550781 435.80310547 -292.29550781 435.80310547 -293.6171875 434.58203125 C-310.56708576 418.34452002 -322.42183395 398.71505784 -331 377 C-331.32838867 376.17105225 -331.65677734 375.34210449 -331.99511719 374.48803711 C-334.53645691 367.81672206 -336.26382253 361.18927227 -337.625 354.1875 C-337.83882324 353.1145166 -338.05264648 352.0415332 -338.27294922 350.93603516 C-339.84017933 342.71321257 -340.80186776 334.52471755 -341.27978516 326.16870117 C-341.62807038 320.80007448 -342.41653709 316.75901063 -345 312 C-348.11122829 309.9258478 -348.78670636 309.74847824 -352.31475163 309.73549366 C-353.64380987 309.72337037 -353.64380987 309.72337037 -354.99971777 309.71100217 C-356.4611785 309.71288109 -356.4611785 309.71288109 -357.9521637 309.71479797 C-358.98645459 309.70830001 -360.02074548 309.70180204 -361.08637851 309.69510716 C-364.56875976 309.67568648 -368.05101791 309.6705376 -371.53344727 309.6652832 C-374.02322771 309.65435353 -376.5130045 309.64256355 -379.0027771 309.62997437 C-385.07304394 309.60160057 -391.14327652 309.58248398 -397.21358628 309.56763426 C-404.2779248 309.54997069 -411.34221066 309.52194632 -418.40651261 309.49350204 C-431.00755966 309.44313017 -443.60861969 309.40237938 -456.2097168 309.36694336 C-468.44672937 309.33252417 -480.68369191 309.29109656 -492.9206543 309.24194336 C-493.6744452 309.23891641 -494.42823611 309.23588946 -495.20486916 309.23277078 C-495.95733695 309.22974874 -496.70980474 309.2267267 -497.48507458 309.22361308 C-511.40357576 309.16777349 -525.32209358 309.11856231 -539.24063005 309.07241303 C-544.16898215 309.05591793 -549.09732458 309.03743665 -554.02566719 309.01833534 C-560.65346732 308.9927902 -567.28126887 308.97285884 -573.90909958 308.956707 C-576.34806672 308.94997671 -578.78702976 308.94151963 -581.22598457 308.93125343 C-584.54227038 308.91759261 -587.85851252 308.91008905 -591.17481995 308.9042511 C-592.15135782 308.89881155 -593.1278957 308.893372 -594.13402563 308.88776761 C-595.45917226 308.88737919 -595.45917226 308.88737919 -596.81108952 308.88698292 C-597.57725781 308.88464958 -598.3434261 308.88231624 -599.13281161 308.8799122 C-601.09299052 308.88445974 -601.09299052 308.88445974 -603 310 C-602.99815641 310.83360581 -602.99631283 311.66721163 -602.99441338 312.52607822 C-602.95023202 332.81570812 -602.91714228 353.10532971 -602.89637566 373.3949976 C-602.88606598 383.20695283 -602.87201151 393.01887593 -602.84912109 402.83081055 C-602.82917781 411.38354353 -602.81628132 419.93625325 -602.81182301 428.48900884 C-602.80921723 433.01701992 -602.80309886 437.54496444 -602.78853989 442.07295418 C-602.77494118 446.33693117 -602.770782 450.60081433 -602.77378464 454.86481094 C-602.7732355 456.42766899 -602.7692717 457.99053026 -602.76158905 459.55336952 C-602.75159185 461.69239651 -602.75404831 463.83107238 -602.75949097 465.97010803 C-602.75764738 467.16567353 -602.75580379 468.36123903 -602.75390434 469.59303379 C-603.02638354 473.36525563 -603.8449774 476.41095125 -605 480 C-619.66422164 480.0934352 -634.32840389 480.1639751 -648.9928627 480.20724869 C-655.80182088 480.22787534 -662.61059412 480.25599754 -669.41943359 480.30175781 C-675.98759298 480.34587951 -682.55561043 480.36912311 -689.12392426 480.37950897 C-691.63262714 480.38691248 -694.14131925 480.40136936 -696.64994049 480.42292023 C-700.15781078 480.45186289 -703.66488152 480.45595969 -707.17285156 480.45410156 C-708.21510391 480.46848267 -709.25735626 480.48286377 -710.33119202 480.49768066 C-711.28749008 480.49218201 -712.24378815 480.48668335 -713.22906494 480.48101807 C-714.05867863 480.48470524 -714.88829231 480.48839241 -715.74304581 480.49219131 C-718.91996195 479.79937684 -719.9891415 478.53454513 -722 476 C-722.49909532 472.99199188 -722.49909532 472.99199188 -722.49777794 469.39138603 C-722.50299251 468.72552736 -722.50820708 468.05966869 -722.51357967 467.37363249 C-722.52621836 465.13224129 -722.51023251 462.89196275 -722.49447632 460.65060425 C-722.49765159 459.03165144 -722.50257789 457.41270126 -722.50910914 455.79375851 C-722.5219641 451.33711161 -722.50977878 446.88082681 -722.49358058 442.42420363 C-722.48044752 437.62117948 -722.49031889 432.81819651 -722.49734497 428.01516724 C-722.50743903 418.6035021 -722.49613353 409.19197728 -722.47764437 399.78032957 C-722.45690192 388.82914871 -722.45701605 377.87799839 -722.45798953 366.92680158 C-722.45899128 347.39371694 -722.44065302 327.86069774 -722.41162109 308.32763672 C-722.38343748 289.35561938 -722.36927983 270.38365965 -722.37060547 251.41162109 C-722.37068538 250.24290053 -722.37076529 249.07417996 -722.37084763 247.87004362 C-722.37092834 246.70338132 -722.37100905 245.53671903 -722.3710922 244.33470333 C-722.37247045 222.75990722 -722.36070099 201.18513568 -722.34278577 179.61034753 C-722.33674308 171.96889784 -722.33462547 164.32745264 -722.33372116 156.68600082 C-722.33235951 147.38077816 -722.32346677 138.07559689 -722.30505554 128.77039181 C-722.29579638 124.01882654 -722.28973706 119.26731435 -722.29224396 114.51573944 C-722.29442455 110.17218764 -722.2874559 105.82875352 -722.27294691 101.48522629 C-722.26930275 99.90793593 -722.26907653 98.3306335 -722.27248149 96.75334261 C-722.27657726 94.6210635 -722.26854546 92.48917648 -722.25726891 90.35693169 C-722.25515563 88.57511885 -722.25515563 88.57511885 -722.25299966 86.75730979 C-722 84 -722 84 -720 82 C-718.0187254 81.73993778 -718.0187254 81.73993778 -715.54118347 81.72584534 C-714.60327469 81.71587021 -713.66536591 81.70589508 -712.69903564 81.69561768 C-711.66679871 81.694953 -710.63456177 81.69428833 -709.57104492 81.69360352 C-708.48638443 81.68528 -707.40172394 81.67695648 -706.28419495 81.66838074 C-702.68291682 81.64419957 -699.08181956 81.63549831 -695.48046875 81.62890625 C-692.9842371 81.61994555 -690.48800601 81.61082382 -687.99177551 81.60154724 C-682.75191502 81.58503223 -677.5120989 81.57731944 -672.2722168 81.57446289 C-666.21904886 81.57082969 -660.16638865 81.54095404 -654.11337584 81.49905831 C-648.28918761 81.46016131 -642.46520049 81.44886987 -636.64089394 81.44773674 C-634.16372234 81.44352454 -631.6865507 81.43105051 -629.20946312 81.41021919 C-625.74490411 81.38340578 -622.28174797 81.38810173 -618.81713867 81.40063477 C-617.2778923 81.37838333 -617.2778923 81.37838333 -615.70755005 81.35568237 C-611.31723346 81.40097708 -608.68805177 81.59358603 -604.8584137 83.85565186 C-602.10405611 88.51589473 -602.34779017 92.58754029 -602.44824219 97.90893555 C-602.44911835 99.00860657 -602.44999451 100.10827759 -602.45089722 101.24127197 C-602.45947394 104.87360914 -602.50323647 108.50464793 -602.546875 112.13671875 C-602.5587413 114.65825938 -602.56825145 117.17981211 -602.57550049 119.70137024 C-602.59772633 125.65954553 -602.64150282 131.61730435 -602.69644666 137.57524472 C-602.78788872 147.61856606 -602.83293326 157.66216184 -602.88165283 167.70576477 C-602.90596751 172.6949808 -602.94121711 177.68393829 -602.98504639 182.67301941 C-603.0014537 184.94176207 -603.01783301 187.21050494 -603.03417969 189.47924805 C-603.04563019 190.52083572 -603.05708069 191.5624234 -603.06887817 192.63557434 C-603.07472931 193.58189728 -603.08058044 194.52822021 -603.08660889 195.5032196 C-603.09402477 196.32818278 -603.10144066 197.15314596 -603.10908127 198.00310802 C-603.12873401 200.07400033 -603.12873401 200.07400033 -602 202 C-517.85 202 -433.7 202 -347 202 C-346.67 163.72 -346.34 125.44 -346 86 C-345.67 83.36 -345.34 80.72 -345 78 C-334.20103117 75.16968611 -323.09066609 75.70970306 -312.0234375 75.734375 C-309.88595536 75.73302556 -307.74847353 75.7310827 -305.61099243 75.72857666 C-301.14785823 75.72563982 -296.68480448 75.72987739 -292.22167969 75.73925781 C-286.51803388 75.75066531 -280.81457608 75.74407543 -275.11093712 75.73211288 C-270.70301918 75.72486716 -266.29514542 75.72719443 -261.8872261 75.73236847 C-259.78460289 75.73369674 -257.68197558 75.73208626 -255.57935715 75.72740936 C-252.63661903 75.72229786 -249.69418078 75.73011844 -246.75146484 75.74121094 C-245.89408218 75.73716248 -245.03669952 75.73311401 -244.15333557 75.72894287 C-238.53926062 75.76790365 -233.4273756 76.56998436 -228 78 C-226.74685217 99.37616852 -226.83413539 120.76023143 -226.80076981 142.16466331 C-226.78994607 148.90157439 -226.76967529 155.63843783 -226.74765015 162.37532043 C-226.68617115 181.51117824 -226.63153188 200.64702884 -226.59863281 219.78295898 C-226.58030812 230.39632895 -226.55142467 241.00961467 -226.5106281 251.62292272 C-226.48957172 257.22361913 -226.47410222 262.82420965 -226.47182083 268.42494774 C-226.46967936 273.67259811 -226.45386168 278.92002571 -226.42743111 284.16760826 C-226.42022539 286.0925219 -226.41814328 288.01746249 -226.42153358 289.94238663 C-226.42541898 292.56705545 -226.41100571 295.19100924 -226.39199829 297.81559753 C-226.39752799 298.57841591 -226.40305768 299.34123428 -226.40875494 300.12716836 C-226.35222306 304.64063719 -225.57974776 307.31458135 -223 311 C-222.8828125 313.078125 -222.8828125 313.078125 -223.125 315.25 C-223.58937218 333.68830718 -212.05210066 352.92357975 -200 366 C-199.40058594 366.6909375 -198.80117188 367.381875 -198.18359375 368.09375 C-183.41135246 384.17411633 -160.87381625 393.41621833 -139.32226562 394.40039062 C-132.94149619 394.58685003 -126.56448432 394.60740378 -120.18139648 394.57641602 C-116.20536292 394.56256224 -112.23169522 394.59671348 -108.25585938 394.63476562 C-89.91261219 394.69155232 -72.58366343 393.20225643 -56 384.75 C-55.22366211 384.3686792 -54.44732422 383.9873584 -53.64746094 383.59448242 C-46.80813315 380.12580382 -40.88428041 375.92725574 -35 371 C-34.37480469 370.5359375 -33.74960937 370.071875 -33.10546875 369.59375 C-15.46806812 356.04558277 -4.41255296 330.99673299 -1.27931571 309.60457492 C-0.20379305 299.57549581 -0.55672142 289.38145719 -0.56726015 279.30431783 C-0.56788965 275.54786595 -0.55121156 271.79148327 -0.53674316 268.0350647 C-0.51405654 261.54300469 -0.50208933 255.05099798 -0.49761391 248.55890083 C-0.49112756 239.17268527 -0.46814681 229.78656565 -0.44127061 220.40038895 C-0.39809721 205.16822532 -0.36807665 189.93606575 -0.34643555 174.70385742 C-0.32539745 159.91607671 -0.29809774 145.12832919 -0.26245117 130.34057617 C-0.26025235 129.42750938 -0.25805352 128.51444259 -0.25578807 127.57370711 C-0.24471771 122.9926565 -0.23352503 118.4116062 -0.22227156 113.83055604 C-0.12922035 75.88706602 -0.05756049 37.94355964 0 0 Z " fill="#FEFEFE" transform="translate(989,1031)"/>
<path d="M0 0 C2.54147596 2.24989577 5.03712663 4.54063618 7.51953125 6.85546875 C8.30972656 7.57992187 9.09992188 8.304375 9.9140625 9.05078125 C33.41618493 31.45183494 50.22889239 62.67728501 57.64453125 94.10546875 C57.89589844 95.12253906 58.14726563 96.13960937 58.40625 97.1875 C61.60671769 110.57584388 62.91143253 123.79058404 62.83203125 137.54296875 C62.82954376 138.23890137 62.82705627 138.93483398 62.82449341 139.65185547 C62.68174669 165.61766859 57.08217305 190.5038171 45.51953125 213.85546875 C45.19259277 214.5309375 44.8656543 215.20640625 44.52880859 215.90234375 C36.70856507 231.93625548 26.78519592 245.92798764 14.51953125 258.85546875 C13.46871593 260.0977878 12.42580035 261.34687689 11.39453125 262.60546875 C-9.52373285 287.24017571 -42.18116963 302.1441825 -72.48046875 310.85546875 C-73.58777344 311.18289063 -74.69507813 311.5103125 -75.8359375 311.84765625 C-78.70584189 312.63293333 -81.56223944 313.27401704 -84.48046875 313.85546875 C-85.13499023 313.98937012 -85.78951172 314.12327148 -86.46386719 314.26123047 C-132.61887882 323.38346376 -183.53211458 312.76929949 -222.69482422 286.86523438 C-240.62884685 274.66545309 -257.10169228 259.74558968 -269.48046875 241.85546875 C-269.88185059 241.27667969 -270.28323242 240.69789063 -270.69677734 240.1015625 C-297.5803158 200.6652748 -309.50757054 149.18431918 -300.85546875 101.91796875 C-300.15625328 98.53690017 -299.34937876 95.19661086 -298.48046875 91.85546875 C-298.16698486 90.61168457 -298.16698486 90.61168457 -297.84716797 89.34277344 C-291.34411542 64.13918253 -280.07052815 40.9206772 -263.48046875 20.85546875 C-263.00851074 20.27667969 -262.53655273 19.69789063 -262.05029297 19.1015625 C-244.0372394 -2.91109023 -221.48974738 -18.88424378 -195.48046875 -30.14453125 C-194.00126953 -30.80388672 -194.00126953 -30.80388672 -192.4921875 -31.4765625 C-128.77939535 -58.05872082 -51.72643088 -44.7209615 0 0 Z " fill="#966CFE" transform="translate(1271.48046875,270.14453125)"/>
<path d="M0 0 C3.00654304 -0.07730277 6.01227928 -0.12726865 9.01953125 -0.16748047 C10.42114502 -0.19974731 10.42114502 -0.19974731 11.85107422 -0.23266602 C16.7513578 -0.25649746 20.20784081 -0.20071217 24.14453125 3.08251953 C25.32742959 5.44831621 25.27279449 6.87121402 25.27824402 9.51010132 C25.282509 10.44104111 25.28677399 11.3719809 25.29116821 12.33113098 C25.29071503 13.35558823 25.29026184 14.38004547 25.28979492 15.43554688 C25.29483284 17.0503167 25.29483284 17.0503167 25.29997253 18.69770813 C25.30950411 22.2713027 25.31142678 25.84485053 25.3125 29.41845703 C25.31571115 31.89466369 25.31907511 34.37087016 25.32258606 36.84707642 C25.32858293 42.04405151 25.3304254 47.24100997 25.32983398 52.43798828 C25.3291673 59.10530959 25.34338314 65.77250858 25.36060619 72.4398098 C25.37171179 77.55610649 25.37375363 82.67237733 25.37322426 87.78868484 C25.37440661 90.24712109 25.37884256 92.70555796 25.38655663 95.16398239 C25.39632697 98.59963231 25.39349002 102.03504966 25.38745117 105.47070312 C25.39307068 106.49111191 25.39869019 107.51152069 25.40447998 108.56285095 C25.39818825 109.96772011 25.39818825 109.96772011 25.39176941 111.40097046 C25.39231418 112.21323782 25.39285894 113.02550518 25.39342022 113.8623867 C25.11350408 116.35928731 24.47526647 117.95978728 23.14453125 120.08251953 C17.8616305 122.72396991 9.31153459 119.95926497 3.69140625 119.05908203 C-3.84830242 117.97667313 -11.24637277 117.73637436 -18.85546875 117.77001953 C-19.86176834 117.77325226 -19.86176834 117.77325226 -20.88839722 117.77655029 C-63.62737263 117.99514459 -106.1113004 132.54170626 -137.63671875 162.02001953 C-139.61283968 163.85697702 -141.64501496 165.56063118 -143.73046875 167.27001953 C-172.54285764 192.61103627 -190.27406829 232.52940683 -194.85546875 270.08251953 C-194.95652167 272.7686591 -195.01919403 275.42821225 -195.0234375 278.11376953 C-195.0267659 278.86734741 -195.0300943 279.62092529 -195.03352356 280.39733887 C-195.03856092 281.98737992 -195.04093288 283.57743144 -195.04077148 285.16748047 C-195.04293753 287.54820195 -195.06107054 289.92844352 -195.08007812 292.30908203 C-195.13226894 305.90638058 -193.86271942 318.88561481 -190.10546875 332.02001953 C-189.84233887 332.95604004 -189.57920898 333.89206055 -189.30810547 334.85644531 C-176.20819999 380.47594937 -146.8891814 419.36443875 -105.2734375 442.69970703 C-92.2371257 449.81148331 -79.29476766 455.53844753 -64.85546875 459.08251953 C-64.11941406 459.2665332 -63.38335937 459.45054687 -62.625 459.64013672 C-60.35137412 460.20071659 -58.07404431 460.74061218 -55.79296875 461.27001953 C-55.13417725 461.42510986 -54.47538574 461.5802002 -53.79663086 461.73999023 C-51.49060492 462.24670292 -49.18121776 462.67512381 -46.85546875 463.08251953 C-45.30956055 463.35829834 -45.30956055 463.35829834 -43.73242188 463.63964844 C-30.04455393 465.71837932 -16.28839309 465.23237297 -2.48046875 465.08251953 C2.50650052 465.02945323 7.49332526 464.98952687 12.48046875 464.95751953 C14.19428238 464.93262451 14.19428238 464.93262451 15.94271851 464.90722656 C16.99206573 464.90062012 18.04141296 464.89401367 19.12255859 464.88720703 C20.04692719 464.8767334 20.97129578 464.86625977 21.92367554 464.85546875 C24.14453125 465.08251953 24.14453125 465.08251953 26.14453125 467.08251953 C26.35405762 470.16482626 26.43815467 473.15797553 26.43505859 476.2421875 C26.44177582 477.1919043 26.44849304 478.14162109 26.45541382 479.12011719 C26.47447139 482.2716998 26.47832199 485.42307032 26.48046875 488.57470703 C26.48689154 490.75945118 26.4936195 492.94419446 26.50064087 495.12893677 C26.51263325 499.71390782 26.5163197 504.29880342 26.51513672 508.88378906 C26.51493348 514.76431801 26.54223237 520.64436393 26.57668114 526.52477837 C26.59889944 531.0388919 26.60297581 535.55288831 26.60191727 540.06705093 C26.604281 542.23522735 26.61314772 544.40340662 26.628582 546.57152939 C26.64813821 549.60271936 26.64244442 552.63285623 26.63037109 555.6640625 C26.64161011 556.56291168 26.65284912 557.46176086 26.66442871 558.3878479 C26.60290681 564.4542175 26.60290681 564.4542175 24.29214478 567.62161255 C21.53537622 569.49689522 19.38505548 569.86466662 16.08203125 570.27001953 C14.51775391 570.47691406 14.51775391 570.47691406 12.921875 570.68798828 C11.67535156 570.81818359 10.42882812 570.94837891 9.14453125 571.08251953 C8.42845703 571.16937012 7.71238281 571.2562207 6.97460938 571.34570312 C-35.76146035 576.01315231 -82.68457461 571.89591 -122.85546875 556.08251953 C-124.06275635 555.60758057 -124.06275635 555.60758057 -125.29443359 555.12304688 C-144.80024222 547.32294462 -162.82184068 537.70325758 -180.29296875 526.08251953 C-181.22663773 525.4634523 -181.22663773 525.4634523 -182.1791687 524.83187866 C-207.07247689 508.25732813 -231.98694774 488.23628458 -249.85546875 464.08251953 C-250.29487793 463.49245117 -250.73428711 462.90238281 -251.18701172 462.29443359 C-284.85702792 416.78703581 -305.60159433 359.71570685 -306.09375 302.78173828 C-306.10349854 301.83502762 -306.11324707 300.88831696 -306.12329102 299.91291809 C-306.30010124 278.2831711 -305.88680057 257.39798249 -301.85546875 236.08251953 C-301.66291504 235.04321289 -301.47036133 234.00390625 -301.27197266 232.93310547 C-300.00486597 226.26200576 -298.52958386 219.66292776 -296.85546875 213.08251953 C-296.64728516 212.26235352 -296.43910156 211.4421875 -296.22460938 210.59716797 C-288.22604268 179.99342125 -274.21205574 150.78174131 -255.85546875 125.08251953 C-255.45231445 124.51500977 -255.04916016 123.9475 -254.63378906 123.36279297 C-246.62855944 112.17731015 -237.76915485 101.61973654 -227.85546875 92.08251953 C-225.40544755 89.6482036 -222.97138601 87.20199739 -220.56640625 84.72314453 C-188.13998138 51.53757259 -143.61158509 29.08919209 -99.85546875 15.08251953 C-99.21174316 14.87320801 -98.56801758 14.66389648 -97.90478516 14.44824219 C-66.57811749 4.4569868 -32.71173671 0.94532892 0 0 Z " fill="#FEFEFE" transform="translate(556.85546875,112.91748046875)"/>
</svg>
